# AST/ASF file generated using VICON BodyLanguage
# -----------------------------------------------
:version 1.10
:name VICON
:units
  mass 1.0
  length 0.45
  angle deg
:documentation
   .ast/.asf automatically generated from VICON data using
   VICON BodyBuilder and BodyLanguage model FoxedUp or BRILLIANT.MOD
:root
   order TX TY TZ RX RY RZ
   axis XYZ
   position 0 0 0  
   orientation 0 0 0 
:bonedata
  begin
     id 1 
     name lhipjoint
     direction 0.606768 -0.715223 0.346827 
     length 2.41543 
     axis 0 0 0  XYZ
  end
  begin
     id 2 
     name lfemur
     direction 0.34202 -0.939693 0  
     length 7.2778  
     axis 0 0 20  XYZ
    dof rx ry rz
    limits (-160.0 20.0)
           (-70.0 70.0)
           (-60.0 70.0)
  end
  begin
     id 3 
     name ltibia
     direction 0.34202 -0.939693 0   
     length 7.61811   
     axis 0 0 20   XYZ
    dof rx
    limits (-10.0 170.0)
  end
  begin
     id 4 
     name lfoot
     direction 0.0823924 -0.226371 0.97055   
     length 2.33618   
     axis -90 7.62852e-016 20   XYZ
    dof rx rz
    limits (-45.0 90.0)
           (-70.0 20.0)
  end
  begin
     id 5 
     name ltoes
     direction 1.53554e-011 -4.21934e-011 1   
     length 1.17015   
     axis -90 7.62852e-016 20   XYZ
    dof rx
    limits (-90.0 20.0)
  end
  begin
     id 6 
     name rhipjoint
     direction -0.6077 -0.714582 0.346516   
     length 2.4176  
     axis 0 0 0  XYZ 
  end
  begin
     id 7 
     name rfemur
     direction -0.34202 -0.939693 0   
     length 7.28127   
     axis 0 0 -20   XYZ
    dof rx ry rz
    limits (-160.0 20.0)
           (-70.0 70.0)
           (-70.0 60.0)
  end
  begin
     id 8 
     name rtibia
     direction -0.34202 -0.939693 0   
     length 7.77648   
     axis 0 0 -20   XYZ
    dof rx
    limits (-10.0 170.0)
 end
 begin
     id 9 
     name rfoot
     direction -0.0809463 -0.222398 0.97159   
     length 2.37533  
     axis -90 -7.62852e-016 -20   XYZ
    dof rx rz
    limits (-45.0 90.0)
           (-20.0 70.0)
  end
  begin
     id 10 
     name rtoes
     direction -1.53568e-011 -4.21714e-011 1   
     length 1.18972   
     axis -90 -7.62852e-016 -20   XYZ
    dof rx
    limits (-90.0 20.0)
  end
  begin
     id 11 
     name lowerback
     direction 0.010968 0.991932 -0.126297   
     length 2.21698   
     axis 0 0 0   XYZ
    dof rx ry rz
    limits (-20.0 45.0)
           (-30.0 30.0)
           (-30.0 30.0)
  end
  begin
     id 12 
     name upperback
     direction 0.0167007 0.997503 -0.0686276   
     length 2.22371   
     axis 0 0 0   XYZ
    dof rx ry rz
    limits (-20.0 45.0)
           (-30.0 30.0)
           (-30.0 30.0)
  end
  begin
     id 13 
     name thorax
     direction 0.0111721 0.999885 -0.0102878   
     length 2.25242   
     axis 0 0 0   XYZ
    dof rx ry rz
    limits (-20.0 45.0)
           (-30.0 30.0)
           (-30.0 30.0)
  end
  begin
     id 14 
     name lowerneck
     direction -0.0120265 0.990428 0.137508   
     length 1.57674   
     axis 0 0 0   XYZ
    dof rx ry rz
    limits (-20.0 45.0)
           (-30.0 30.0)
           (-30.0 30.0)
  end
  begin
     id 15 
     name upperneck
     direction 0.0175669 0.998907 0.0433089   
     length 1.5618   
     axis 0 0 0   XYZ
    dof rx ry rz
    limits (-20.0 45.0)
           (-30.0 30.0)
           (-30.0 30.0)
  end
  begin
     id 16
     name head
     direction 0.00754609 0.99997 0.00185367  
     length 1.60579  
     axis 0 0 0   XYZ
    dof rx ry rz
    limits (-20.0 45.0)
           (-30.0 30.0)
           (-30.0 30.0)
  end
  begin
     id 17 
     name lclavicle
     direction 0.885866 0.429166 -0.176231  
     length 3.44967  
     axis 0 0 0   XYZ
    dof ry rz
    limits (-20.0 10.0)
           (0.0 20.0)
  end
  begin
     id 18 
     name lhumerus
     direction 1 -4.48973e-011 -1.90255e-027   
     length 5.20607   
     axis 180 -30 -90   XYZ
    dof rx ry rz
    limits (-60.0 90.0)
           (-90.0 90.0)
           (-90.0 90.0)
  end
  begin
     id 19
     name lradius
     direction 1 -4.48956e-011 9.87925e-027   
     length 3.39961   
     axis 180 -30 -90   XYZ
    dof rx
    limits (-10.0 170.0)
  end
  begin
     id 20
     name lwrist
     direction 1 -4.48985e-011 1.73247e-026   
     length 1.6998   
     axis -9.60847e-015 90 90   XYZ
    dof ry
    limits (-180.0 0.0)
 end
  begin
     id 21 
     name lhand
     direction 1 -4.48798e-011 3.46119e-026   
     length 0.519693   
     axis -2.21073e-014 90 90   XYZ
    dof rx rz
    limits (-90.0 90.0)
           (-45.0 45.0)
  end
  begin
     id 22 
     name lfingers
     direction 1 -4.48938e-011 6.92797e-026   
     length 0.41899   
     axis -4.42155e-014 90 90   XYZ
    dof rx
    limits (0.0 90.0)
  end
  begin
     id 23
     name lthumb
     direction 0.707107 -6.34952e-011 0.707107   
     length 0.601588   
     axis -90 45 6.0103e-014   XYZ
    dof rx rz
    limits (-45.0 45.0)
           (-45.0 45.0)
  end
  begin
     id 24 
     name rclavicle
     direction -0.866736 0.456792 -0.200276   
     length 3.45032  
     axis 0 0 0   XYZ 
    dof ry rz
    limits (-10.0 20.0)
           (-20.0 0.0)
  end
  begin
     id 25 
     name rhumerus
     direction -1 -4.4897e-011 8.65094e-028  
     length 5.32214   
     axis 180 30 90   XYZ
    dof rx ry rz
    limits (-90.0 60.0)
           (-90.0 90.0)
           (-90.0 90.0)
  end
  begin
     id 26 
     name rradius
     direction -1 -4.48987e-011 1.08427e-026   
     length 3.51208   
     axis 180 30 90   XYZ
    dof rx
    limits (-10.0 170.0)
  end
  begin
     id 27 
     name rwrist
     direction -1 -4.48961e-011 1.73222e-026   
     length 1.75604   
     axis -9.60847e-015 -90 -90   XYZ
    dof ry
    limits (-180.0 0.0)
  end
  begin
     id 28
     name rhand
     direction -1 -4.48895e-011 3.46314e-026   
     length 0.586681   
     axis -2.21073e-014 -90 -90   XYZ
    dof rx rz
    limits (-90.0 90.0)
           (-45.0 45.0)
  end
  begin
     id 29
     name rfingers
     direction -1 -4.48968e-011 6.92916e-026   
     length 0.472997   
     axis -4.42155e-014 -90 -90   XYZ
    dof rx
    limits (0.0 90.0)
  end
  begin
     id 30
     name rthumb
     direction -0.707107 -6.34848e-011 0.707107   
     length 0.679133   
     axis -90 -45 -6.0103e-014   XYZ
    dof rx rz
    limits (-45.0 45.0)
           (-45.0 45.0)
  end
:hierarchy
  begin
    root lhipjoint rhipjoint lowerback
    lhipjoint lfemur
    lfemur ltibia
    ltibia lfoot
    lfoot ltoes
    rhipjoint rfemur
    rfemur rtibia
    rtibia rfoot
    rfoot rtoes
    lowerback upperback
    upperback thorax
    thorax lowerneck lclavicle rclavicle
    lowerneck upperneck
    upperneck head
    lclavicle lhumerus
    lhumerus lradius
    lradius lwrist
    lwrist lhand lthumb
    lhand lfingers
    rclavicle rhumerus
    rhumerus rradius
    rradius rwrist
    rwrist rhand rthumb
    rhand rfingers
  end

#!OML:ASF H:\Dans Jumps\Project 1\Capture day 1\Session 1\subject.ASF
:FULLY-SPECIFIED
:DEGREES
63
root -0.00298912 17.5675 -14.368 11.1628 -0.0951454 -1.13634
lowerback 2.55907 -0.173566 -0.158574
upperback 5.94756 -0.284148 1.43148
thorax 4.71206 -0.186471 1.56406
lowerneck -11.2188 1.09813 -2.30857
upperneck 36.676 1.51904 1.98716
head 14.4355 0.594128 1.45696
rclavicle -3.97569e-016 -1.05356e-014
rhumerus -20.8405 -14.8015 -81.4965
rradius 25.822
rwrist 29.0914
rhand -20.3123 -26.718
rfingers 7.12502
rthumb 6.03831 -56.6119
lclavicle -3.97569e-016 -1.05356e-014
lhumerus -14.1762 4.79125 84.9963
lradius 18.3884
lwrist 8.14123
lhand -29.0328 -6.4241
lfingers 7.12502
lthumb -2.38342 23.5423
rfemur -21.4515 -2.02095 19.1524
rtibia 24.0401
rfoot -12.7377 -0.787469
rtoes 8.11286
lfemur -19.523 5.10383 -17.0858
ltibia 21.368
lfoot -10.2249 5.33002
ltoes -5.75073
64
root -0.00775065 17.5736 -14.3654 11.1642 0.0400146 -1.19237
lowerback 2.5005 -0.24703 -0.0769807
upperback 5.89598 -0.383159 1.46012
thorax 4.69353 -0.232486 1.54609
lowerneck -11.1147 1.138 -2.20451
upperneck 36.4913 1.56975 1.91935
head 14.3255 0.622888 1.41282
rclavicle -1.2921e-015 1.47101e-014
rhumerus -20.8779 -14.6202 -81.4954
rradius 25.9112
rwrist 28.838
rhand -20.3546 -26.7292
rfingers 7.12502
rthumb 5.99749 -56.6243
lclavicle -1.2921e-015 1.47101e-014
lhumerus -14.2882 4.56468 85.0945
lradius 18.3971
lwrist 8.03979
lhand -28.743 -6.25913
lfingers 7.12502
lthumb -2.10349 23.7102
rfemur -21.2718 -2.14391 19.2477
rtibia 23.749
rfoot -12.6515 -0.752657
rtoes 8.27739
lfemur -19.4173 5.14802 -17.0084
ltibia 21.1533
lfoot -10.2391 5.17665
ltoes -5.63204
65
root -0.011698 17.5789 -14.3631 11.1541 0.182003 -1.26655
lowerback 2.44902 -0.320869 0.0279366
upperback 5.84999 -0.483157 1.49666
thorax 4.67663 -0.278222 1.52316
lowerneck -11.0547 1.15368 -2.1456
upperneck 36.3451 1.5899 1.87458
head 14.2444 0.634963 1.38316
rclavicle -4.47266e-015 1.90833e-014
rhumerus -20.9037 -14.4272 -81.4914
rradius 25.9943
rwrist 28.5792
rhand -20.4037 -26.7512
rfingers 7.12502
rthumb 5.95009 -56.6476
lclavicle -4.47266e-015 1.90833e-014
lhumerus -14.3777 4.34441 85.2028
lradius 18.3668
lwrist 7.80127
lhand -28.4226 -6.10802
lfingers 7.12502
lthumb -1.79402 23.8642
rfemur -21.0867 -2.26772 19.3598
rtibia 23.4676
rfoot -12.5664 -0.716199
rtoes 8.44305
lfemur -19.3278 5.19123 -16.9136
ltibia 20.986
lfoot -10.2623 5.03081
ltoes -5.54873
66
root -0.0149421 17.5833 -14.3612 11.1335 0.32407 -1.34732
lowerback 2.40224 -0.392716 0.141657
upperback 5.80924 -0.580806 1.53753
thorax 4.66228 -0.322581 1.49978
lowerneck -11.0391 1.13819 -2.15032
upperneck 36.2463 1.56876 1.86764
head 14.1957 0.625125 1.37578
rclavicle 2.68359e-015 5.36719e-015
rhumerus -20.9178 -14.2346 -81.4811
rradius 26.0683
rwrist 28.3346
rhand -20.4715 -26.7614
rfingers 7.12502
rthumb 5.88461 -56.6597
lclavicle 2.68359e-015 5.36719e-015
lhumerus -14.4485 4.13925 85.3202
lradius 18.3065
lwrist 7.45627
lhand -28.093 -5.99978
lfingers 7.12502
lthumb -1.47577 23.9749
rfemur -20.9019 -2.38474 19.4747
rtibia 23.2059
rfoot -12.4872 -0.683223
rtoes 8.61239
lfemur -19.254 5.23162 -16.8142
ltibia 20.864
lfoot -10.2869 4.89518
ltoes -5.49559
